<!DOCTYPE svg PUBLIC "-//W3C//DTD SVG 1.1//EN" "http://www.w3.org/Graphics/SVG/1.1/DTD/svg11.dtd">
<!-- Uploaded to: SVG Repo, www.svgrepo.com, Transformed by: SVG Repo Mixer Tools -->
<svg fill="#ffffff" height="256px" width="256px" version="1.1" id="Layer_1" xmlns="http://www.w3.org/2000/svg" xmlns:xlink="http://www.w3.org/1999/xlink" viewBox="-100.72 -100.72 705.05 705.05" xml:space="preserve" stroke="#ffffff" stroke-width="10.072140000000001">
<g id="SVGRepo_bgCarrier" stroke-width="0">
<rect x="-100.72" y="-100.72" width="705.05" height="705.05" rx="176.2625" fill="#F07900" strokewidth="0"/>
</g>
<g id="SVGRepo_tracerCarrier" stroke-linecap="round" stroke-linejoin="round"/>
<g id="SVGRepo_iconCarrier"> <g transform="translate(1 1)"> <g> <g> <path d="M385.098,57.754h-41.967v-8.393c0-9.233-7.554-16.787-16.787-16.787h-25.18V24.18c0-14.269-10.911-25.18-25.18-25.18 h-50.361c-14.269,0-25.18,11.751-25.18,25.18v8.393h-25.18c-9.233,0-16.787,7.554-16.787,16.787v8.393h-41.967 c-23.502,0-41.967,18.466-41.967,41.967v360.918c0,23.502,18.466,41.967,41.967,41.967h268.59 c23.502,0,41.967-18.466,41.967-41.967V99.721C427.066,76.22,408.6,57.754,385.098,57.754z M175.262,49.361h33.574 c5.036,0,8.393-3.357,8.393-8.393V24.18c0-5.036,3.357-8.393,8.393-8.393h50.361c5.036,0,8.393,4.197,8.393,8.393v16.787 c0,5.036,3.357,8.393,8.393,8.393h33.574v16.787v41.967H175.262V66.148V49.361z M410.279,460.639 c0,14.269-10.911,25.18-25.18,25.18h-268.59c-14.269,0-25.18-10.911-25.18-25.18V99.721c0-14.269,10.911-25.18,25.18-25.18 h41.967v33.574c0,9.233,7.554,16.787,16.787,16.787h151.082c9.233,0,16.787-7.554,16.787-16.787V74.541h41.967 c14.269,0,25.18,10.911,25.18,25.18V460.639z"/> <path d="M351.525,250.803h-69.666l-23.502-69.666c-0.839-3.357-4.197-5.875-7.554-5.875s-6.715,2.518-7.554,5.875l-23.502,69.666 h-69.666c-3.357,0-6.715,2.518-7.554,5.875c-1.679,3.357,0,6.715,2.518,9.233l55.397,45.325l-23.502,71.344 c-1.679,3.357,0,6.715,2.518,9.233c1.679,0.839,3.357,1.679,5.036,1.679c0.839,0,2.518,0,3.357-0.839l62.951-39.449 l62.951,39.449c2.518,1.679,6.715,1.679,9.233-0.839c2.518-2.518,3.357-5.875,2.518-9.233l-23.502-71.344l54.557-45.325 c2.518-2.518,3.357-5.875,2.518-9.233C358.239,253.321,354.882,250.803,351.525,250.803z M286.895,301.164 c-2.518,2.518-3.357,5.875-2.518,9.233l18.466,55.397l-47.003-29.377c-0.839-0.839-2.518-1.679-4.197-1.679 s-3.357,0.839-5.875,1.679l-47.003,29.377l18.466-55.397c0.839-3.357,0-6.715-2.518-9.233l-41.128-33.574h52.039 c3.357,0,6.715-2.518,8.393-5.875l17.626-52.039l17.626,52.039c0.839,3.357,4.197,5.875,7.554,5.875h51.2L286.895,301.164z"/> </g> </g> </g> </g>
</svg>